<svg width="25" height="26" viewBox="0 0 25 26" fill="none" xmlns="http://www.w3.org/2000/svg">
<g clip-path="url(#clip0)">
<path d="M22.5 0.460938H2.5C1.125 0.460938 0 1.58594 0 2.96094V22.9609C0 24.3359 1.125 25.4609 2.5 25.4609H22.5C23.875 25.4609 25 24.3359 25 22.9609V2.96094C25 1.58594 23.875 0.460938 22.5 0.460938ZM7.5 21.7109H3.75V10.4609H7.5V21.7109ZM5.625 8.33594C4.375 8.33594 3.375 7.33594 3.375 6.08594C3.375 4.83594 4.375 3.83594 5.625 3.83594C6.875 3.83594 7.875 4.83594 7.875 6.08594C7.875 7.33594 6.875 8.33594 5.625 8.33594ZM21.25 21.7109H17.5V15.0859C17.5 14.086 16.625 13.2109 15.625 13.2109C14.625 13.2109 13.75 14.086 13.75 15.0859V21.7109H10V10.4609H13.75V11.9609C14.375 10.9609 15.75 10.2109 16.875 10.2109C19.25 10.2109 21.25 12.2109 21.25 14.5859V21.7109Z" fill="#1A191E"/>
</g>
<defs>
<clipPath id="clip0">
<rect width="25" height="25" fill="white" transform="translate(0 0.460938)"/>
</clipPath>
</defs>
</svg>
