<svg width="32" height="32" viewBox="0 0 32 32" fill="none" xmlns="http://www.w3.org/2000/svg">
<g clip-path="url(#clip0)">
<path d="M5.00707 10.285C4.56307 10.714 4.56307 11.428 5.00707 11.872C5.43607 12.301 6.15007 12.301 6.57807 11.872L14.6251 3.82499L14.6251 30.379C14.6261 30.998 15.1181 31.49 15.7371 31.49C16.3561 31.49 16.8641 30.998 16.8641 30.379L16.8641 3.82499L24.8961 11.872C25.3401 12.301 26.0551 12.301 26.4831 11.872C26.9271 11.428 26.9271 10.713 26.4831 10.285L16.5311 0.332991C16.1021 -0.11101 15.3881 -0.11101 14.9601 0.332991L5.00707 10.285Z" fill="#8E8B9F"/>
</g>
<defs>
<clipPath id="clip0">
<rect width="31.49" height="31.49" fill="white" transform="translate(0 31.49) rotate(-90)"/>
</clipPath>
</defs>
</svg>
