<svg width="131" height="30" viewBox="0 0 131 30" fill="none" xmlns="http://www.w3.org/2000/svg">
<g filter="url(#filter0_d)">
<rect x="4" y="14.1002" width="19.5514" height="6.68863" transform="rotate(-45 4 14.1002)" fill="#39C9DD"/>
<rect width="19.5514" height="6.68863" transform="matrix(0.707107 0.707107 0.707107 -0.707107 13.2612 5.00485)" fill="#39C9DD"/>
<rect x="22.5223" y="14.1002" width="19.5514" height="6.68863" transform="rotate(-45 22.5223 14.1002)" fill="#39C9DD"/>
<rect width="19.5514" height="6.68863" transform="matrix(0.707107 0.707107 0.707107 -0.707107 31.7836 5.00485)" fill="#39C9DD"/>
<rect x="41.0447" y="14.1002" width="19.5514" height="6.68863" transform="rotate(-45 41.0447 14.1002)" fill="#39C9DD"/>
<rect width="19.5514" height="6.68863" transform="matrix(0.707107 0.707107 0.707107 -0.707107 50.3059 5.00485)" fill="#39C9DD"/>
<rect x="59.5671" y="14.1002" width="19.5514" height="6.68863" transform="rotate(-45 59.5671 14.1002)" fill="#39C9DD"/>
<rect width="19.5514" height="6.68863" transform="matrix(0.707107 0.707107 0.707107 -0.707107 68.8282 5.00485)" fill="#39C9DD"/>
<rect x="78.0894" y="14.1002" width="19.5514" height="6.68863" transform="rotate(-45 78.0894 14.1002)" fill="#39C9DD"/>
<rect width="19.5514" height="6.68863" transform="matrix(0.707107 0.707107 0.707107 -0.707107 87.3506 5.00485)" fill="#39C9DD"/>
<rect x="96.6118" y="14.1002" width="19.5514" height="6.68863" transform="rotate(-45 96.6118 14.1002)" fill="#39C9DD"/>
<rect width="19.5514" height="6.68863" transform="matrix(0.707107 0.707107 0.707107 -0.707107 108.446 7.57741)" fill="#39C9DD"/>
</g>
<defs>
<filter id="filter0_d" x="0" y="0.275284" width="131" height="29.127" filterUnits="userSpaceOnUse" color-interpolation-filters="sRGB">
<feFlood flood-opacity="0" result="BackgroundImageFix"/>
<feColorMatrix in="SourceAlpha" type="matrix" values="0 0 0 0 0 0 0 0 0 0 0 0 0 0 0 0 0 0 127 0"/>
<feOffset dy="4"/>
<feGaussianBlur stdDeviation="2"/>
<feColorMatrix type="matrix" values="0 0 0 0 0 0 0 0 0 0 0 0 0 0 0 0 0 0 0.25 0"/>
<feBlend mode="normal" in2="BackgroundImageFix" result="effect1_dropShadow"/>
<feBlend mode="normal" in="SourceGraphic" in2="effect1_dropShadow" result="shape"/>
</filter>
</defs>
</svg>
