<svg width="26" height="22" viewBox="0 0 26 22" fill="none" xmlns="http://www.w3.org/2000/svg">
<path d="M9.69577 21.2435C8.57191 21.2435 7.41514 21.1526 6.25142 20.9704C4.20178 20.6492 2.12697 19.5785 1.53985 19.2578L0 18.417L1.66715 17.8695C3.48956 17.271 4.59815 16.8997 5.97046 16.3183C4.59636 15.6537 3.53734 14.4582 3.02756 12.9128L2.63972 11.7369L2.95777 11.7854C2.65618 11.4819 2.41804 11.1737 2.23344 10.8935C1.57693 9.89763 1.22935 8.68075 1.3033 7.63793L1.37627 6.61155L1.99154 6.84958C1.73199 6.36005 1.54442 5.83726 1.43417 5.28931C1.1655 3.95302 1.39035 2.53335 2.06748 1.29191L2.60344 0.309291L3.32023 1.16913C5.58718 3.88885 8.45849 5.50219 11.8664 5.97449C11.7272 5.01623 11.8315 4.09144 12.1767 3.26249C12.5786 2.2973 13.2936 1.47885 14.2438 0.895456C15.299 0.247704 16.5787 -0.0661708 17.8471 0.0116544C19.1929 0.0942323 20.4147 0.597819 21.3851 1.46895C21.859 1.34597 22.2081 1.21468 22.68 1.03724C22.964 0.930507 23.286 0.809313 23.6889 0.670693L25.1736 0.15978L24.2054 2.92148C24.2693 2.91614 24.3351 2.91158 24.4039 2.90861L25.9894 2.83693L25.0523 4.11599C24.9985 4.18926 24.9849 4.21006 24.9658 4.23877C24.8903 4.35244 24.7963 4.49383 23.51 6.20915C23.188 6.63868 23.0272 7.19811 23.0572 7.78467C23.1712 10.0137 22.8974 12.0304 22.2428 13.7786C21.6238 15.4325 20.6645 16.8516 19.3919 17.9964C17.8172 19.4127 15.8092 20.3824 13.4235 20.8783C12.2532 21.1215 10.9965 21.2435 9.69577 21.2435Z" fill="#1A191E"/>
</svg>
