<svg width="113" height="21" viewBox="0 0 113 21" fill="none" xmlns="http://www.w3.org/2000/svg">
<rect y="13.6939" width="17.9618" height="6.14484" transform="rotate(-45 0 13.6939)" fill="#B7503A"/>
<rect width="17.9618" height="6.14484" transform="matrix(0.707107 0.707107 0.707107 -0.707107 8.50818 5.33798)" fill="#B7503A"/>
<rect x="17.0166" y="13.6939" width="17.9618" height="6.14484" transform="rotate(-45 17.0166 13.6939)" fill="#B7503A"/>
<rect width="17.9618" height="6.14484" transform="matrix(0.707107 0.707107 0.707107 -0.707107 25.5247 5.33798)" fill="#B7503A"/>
<rect x="34.0328" y="13.6939" width="17.9618" height="6.14484" transform="rotate(-45 34.0328 13.6939)" fill="#B7503A"/>
<rect width="17.9618" height="6.14484" transform="matrix(0.707107 0.707107 0.707107 -0.707107 42.5411 5.33798)" fill="#B7503A"/>
<rect x="51.0494" y="13.6939" width="17.9618" height="6.14484" transform="rotate(-45 51.0494 13.6939)" fill="#B7503A"/>
<rect width="17.9618" height="6.14484" transform="matrix(0.707107 0.707107 0.707107 -0.707107 59.5576 5.33798)" fill="#B7503A"/>
<rect x="68.0659" y="13.6939" width="17.9618" height="6.14484" transform="rotate(-45 68.0659 13.6939)" fill="#B7503A"/>
<rect width="17.9618" height="6.14484" transform="matrix(0.707107 0.707107 0.707107 -0.707107 76.5741 5.33798)" fill="#B7503A"/>
<rect x="85.0823" y="13.6939" width="17.9618" height="6.14484" transform="rotate(-45 85.0823 13.6939)" fill="#B7503A"/>
<rect width="17.9618" height="6.14484" transform="matrix(0.707107 0.707107 0.707107 -0.707107 95.954 7.70139)" fill="#B7503A"/>
</svg>
